<?xml version="1.0" encoding="utf-8"?>
<!-- Generator: Adobe Illustrator 23.0.3, SVG Export Plug-In . SVG Version: 6.00 Build 0)  -->
<svg version="1.1" id="圖層_1" xmlns="http://www.w3.org/2000/svg" xmlns:xlink="http://www.w3.org/1999/xlink" x="0px" y="0px"
	 viewBox="0 0 108 108" style="enable-background:new 0 0 108 108;" xml:space="preserve">
<style type="text/css">
	.st0{fill:url(#SVGID_1_);}
	.st1{fill:url(#SVGID_2_);}
	.st2{fill:url(#SVGID_3_);}
	.st3{fill:url(#SVGID_4_);}
	.st4{fill:url(#SVGID_5_);}
	.st5{fill:url(#SVGID_6_);}
	.st6{fill:url(#SVGID_7_);}
	.st7{fill:url(#SVGID_8_);}
	.st8{fill:url(#SVGID_9_);}
	.st9{fill:url(#SVGID_10_);}
	.st10{fill:url(#SVGID_11_);}
	.st11{fill:url(#SVGID_12_);}
	.st12{fill:url(#SVGID_13_);}
	.st13{fill:url(#SVGID_14_);}
	.st14{fill:url(#SVGID_15_);}
	.st15{fill:url(#SVGID_16_);}
	.st16{fill:url(#SVGID_17_);}
	.st17{fill:url(#SVGID_18_);}
	.st18{fill:url(#SVGID_19_);}
	.st19{fill:url(#SVGID_20_);}
	.st20{fill:url(#SVGID_21_);}
	.st21{fill:url(#SVGID_22_);}
	.st22{fill:url(#SVGID_23_);}
	.st23{fill:url(#SVGID_24_);}
	.st24{fill:url(#SVGID_25_);}
	.st25{fill:#FFFFFF;}
</style>
<g>
	<g>
		<linearGradient id="SVGID_1_" gradientUnits="userSpaceOnUse" x1="4.3586" y1="54.0088" x2="103.6589" y2="54.0088">
			<stop  offset="0" style="stop-color:#3BB8B0"/>
			<stop  offset="0.4257" style="stop-color:#44BAB3"/>
			<stop  offset="0.866" style="stop-color:#5ABFBD"/>
			<stop  offset="1" style="stop-color:#63C2C1"/>
		</linearGradient>
		<path class="st0" d="M86.4,17.5l-50.9-9c-11.3-2-22.2,5.6-24.2,16.9L4.7,63c-2,11.3,5.6,22.2,16.9,24.2l12.8,2.3l38.1,6.7
			l15.2,2.7l5.4,1l1-5.4l2.7-15.2l5.2-29.5l1.4-8.1C105.3,30.3,97.7,19.5,86.4,17.5z M97.9,40.7l-1.4,8.1l-5.2,29.5
			c-1.5,8.4-9.5,14-17.9,12.5l-38.1-6.7l-12.8-2.3c-8.4-1.5-14-9.5-12.5-17.9l6.6-37.6c1.5-8.4,9.5-14,17.9-12.5l50.9,9
			C93.8,24.4,99.4,32.4,97.9,40.7z"/>
		<linearGradient id="SVGID_2_" gradientUnits="userSpaceOnUse" x1="20.3696" y1="63.9114" x2="63.5547" y2="63.9114">
			<stop  offset="0" style="stop-color:#3BB8B0"/>
			<stop  offset="0.4257" style="stop-color:#44BAB3"/>
			<stop  offset="0.866" style="stop-color:#5ABFBD"/>
			<stop  offset="1" style="stop-color:#63C2C1"/>
		</linearGradient>
		<path class="st1" d="M61,52.3h0.8l0.4-0.7l0,0l1.3-2.6c0.4-0.9-0.2-1.9-1.2-1.9H21.7h-1.3v1.3V51c0,0.7,0.6,1.3,1.3,1.3h12.9
			c0.7,0,1.3,0.6,1.3,1.3v12.1v2.1l-1.9-1l-2.1-1.1c-0.5-0.3-0.8-0.9-0.7-1.4l1.7-7.8l0,0c0-0.9-0.7-1.6-1.6-1.6h-4.8h-1l-0.2,1
			L23,66.2l-2.3,10.3v0c0,0.9,0.7,1.6,1.6,1.6h4.8h1l0.2-1l0.2-1.1l0.8-3.5l0.5-2.1l1.6,1.4h0l2,1.7l2,1.7c0.3,0.2,0.5,0.6,0.5,1
			v3.3c0,0.7,0.6,1.3,1.3,1.3h7.8h1.3v-1.3V53.6v-1.3h1.3L61,52.3L61,52.3z"/>
		<linearGradient id="SVGID_3_" gradientUnits="userSpaceOnUse" x1="20.3696" y1="34.1558" x2="64.3525" y2="34.1558">
			<stop  offset="0" style="stop-color:#3BB8B0"/>
			<stop  offset="0.4257" style="stop-color:#44BAB3"/>
			<stop  offset="0.866" style="stop-color:#5ABFBD"/>
			<stop  offset="1" style="stop-color:#63C2C1"/>
		</linearGradient>
		<path class="st2" d="M21.7,44.5h41.4h1.3v-1.3V25.1c0-0.7-0.6-1.3-1.3-1.3H21.7h-1.3v1.3v18.1C20.4,43.9,20.9,44.5,21.7,44.5z
			 M51.4,30.3V29h1.3h0c0.7,0,1.3,0.6,1.3,1.3l0,7.8l0-9.1l0,10.3h-1.3h0c-0.7,0-1.3-0.6-1.3-1.3V30.3z M41.1,30.3V29h1.3
			c0.7,0,1.3,0.6,1.3,1.3V38v1.3h-1.3c-0.7,0-1.3-0.6-1.3-1.3V30.3z M30.7,30.3V29H32c0.7,0,1.3,0.6,1.3,1.3V38v1.3H32
			c-0.7,0-1.3-0.6-1.3-1.3V30.3z"/>
		<linearGradient id="SVGID_4_" gradientUnits="userSpaceOnUse" x1="48.8287" y1="47.093" x2="87.648" y2="47.093">
			<stop  offset="0" style="stop-color:#3BB8B0"/>
			<stop  offset="0.4257" style="stop-color:#44BAB3"/>
			<stop  offset="0.866" style="stop-color:#5ABFBD"/>
			<stop  offset="1" style="stop-color:#63C2C1"/>
		</linearGradient>
		<path class="st3" d="M86.4,34.2h-7.8c-0.7,0-1.3-0.6-1.3-1.3v-7.8c0-0.7-0.6-1.3-1.3-1.3h-7.8h-1.3v1.3v28.5
			c0,0.7-0.6,1.3-1.3,1.3H50.1h-1.3v1.3v12.9c0,0.7,0.6,1.3,1.3,1.3h36.2h1.3l0-7.5l0-6.7c0-0.7-0.6-1.3-1.3-1.3h-7.8
			c-0.7,0-1.3-0.6-1.3-1.3V40.6v-1.3h1.3h7.8h1.3V38v-2.6C87.6,34.7,87.1,34.2,86.4,34.2z M77.3,62.6v1.3H76H60.5
			c-0.7,0-1.3-0.6-1.3-1.3v0v-1.3h1.3H76C76.7,61.3,77.3,61.9,77.3,62.6L77.3,62.6z"/>
		<linearGradient id="SVGID_5_" gradientUnits="userSpaceOnUse" x1="49.0666" y1="76.8486" x2="57.6379" y2="76.8486">
			<stop  offset="0" style="stop-color:#3BB8B0"/>
			<stop  offset="0.4257" style="stop-color:#44BAB3"/>
			<stop  offset="0.866" style="stop-color:#5ABFBD"/>
			<stop  offset="1" style="stop-color:#63C2C1"/>
		</linearGradient>
		<path class="st4" d="M56.1,73h-4.9h-1.1l-1,6.3c-0.1,0.8,0.5,1.5,1.3,1.5h5.1h1.1l0.6-3.3l0.5-2.9v0C57.6,73.6,57,73,56.1,73z"/>
		<linearGradient id="SVGID_6_" gradientUnits="userSpaceOnUse" x1="59.4351" y1="76.8486" x2="68.0063" y2="76.8486">
			<stop  offset="0" style="stop-color:#3BB8B0"/>
			<stop  offset="0.4257" style="stop-color:#44BAB3"/>
			<stop  offset="0.866" style="stop-color:#5ABFBD"/>
			<stop  offset="1" style="stop-color:#63C2C1"/>
		</linearGradient>
		<path class="st5" d="M66.9,73h-1.1h-5.1c-0.7,0-1.3,0.6-1.3,1.3v0.2l0.5,2.9l0.6,3.3h1.1h5.1c0.8,0,1.4-0.7,1.3-1.5L66.9,73z"/>
		<linearGradient id="SVGID_7_" gradientUnits="userSpaceOnUse" x1="69.1394" y1="76.8486" x2="77.7106" y2="76.8486">
			<stop  offset="0" style="stop-color:#3BB8B0"/>
			<stop  offset="0.4257" style="stop-color:#44BAB3"/>
			<stop  offset="0.866" style="stop-color:#5ABFBD"/>
			<stop  offset="1" style="stop-color:#63C2C1"/>
		</linearGradient>
		<path class="st6" d="M76.7,73h-1.1h-5.1c-0.7,0-1.3,0.6-1.3,1.3v0.2l0.5,2.9l0.6,3.3h1.1h5.1c0.8,0,1.4-0.7,1.3-1.5L76.7,73z"/>
		<linearGradient id="SVGID_8_" gradientUnits="userSpaceOnUse" x1="78.8437" y1="76.8486" x2="87.4149" y2="76.8486">
			<stop  offset="0" style="stop-color:#3BB8B0"/>
			<stop  offset="0.4257" style="stop-color:#44BAB3"/>
			<stop  offset="0.866" style="stop-color:#5ABFBD"/>
			<stop  offset="1" style="stop-color:#63C2C1"/>
		</linearGradient>
		<path class="st7" d="M86.4,73h-1.1h-5.1c-0.7,0-1.3,0.6-1.3,1.3v0.2l0.5,2.9l0.6,3.3H81h5.1c0.8,0,1.4-0.7,1.3-1.5L86.4,73z"/>
	</g>
</g>
</svg>
